<?xml version="1.0" standalone="no"?>
<!DOCTYPE svg PUBLIC "-//W3C//DTD SVG 20010904//EN"
 "http://www.w3.org/TR/2001/REC-SVG-20010904/DTD/svg10.dtd">
<svg version="1.0" xmlns="http://www.w3.org/2000/svg"
 width="70.000000pt" height="70.000000pt" viewBox="0 0 70.000000 70.000000"
 preserveAspectRatio="xMidYMid meet">
<metadata>
Created by potrace 1.14, written by Peter Selinger 2001-2017
</metadata>
<g transform="translate(0.000000,70.000000) scale(0.100000,-0.100000)"
fill="#000000" stroke="none">
<path d="M170 693 c-8 -3 -19 -12 -23 -19 -4 -8 -14 -14 -21 -14 -15 0 -76
-62 -76 -77 0 -6 -7 -13 -15 -17 -9 -3 -12 -12 -8 -22 4 -11 3 -15 -5 -10 -18
11 -24 -51 -20 -209 3 -128 5 -148 21 -156 9 -6 15 -14 12 -20 -4 -5 -1 -9 5
-9 6 0 8 -5 5 -10 -4 -6 -3 -10 2 -9 19 3 33 -2 33 -12 0 -5 -6 -7 -13 -3 -6
4 -1 -5 12 -19 26 -28 42 -38 21 -12 -8 10 -9 15 -1 15 6 0 13 -11 17 -25 3
-14 10 -22 15 -19 5 3 9 0 9 -6 0 -6 4 -9 9 -5 5 3 12 1 16 -5 4 -6 11 -8 16
-4 5 3 9 2 8 -3 -3 -20 2 -27 11 -13 6 10 10 11 10 3 0 -10 34 -13 138 -13
144 0 186 6 175 23 -4 6 -1 7 7 2 7 -4 16 -2 21 6 4 8 12 14 16 14 5 0 31 21
58 47 27 27 45 48 40 48 -5 0 0 6 11 14 17 13 19 30 22 196 2 126 0 180 -7
175 -7 -3 -8 0 -5 9 3 9 1 16 -5 16 -6 0 -10 3 -9 8 2 13 -14 42 -22 37 -4 -3
-25 14 -46 38 -21 23 -41 42 -44 41 -3 0 -11 6 -18 13 -10 10 -55 13 -185 12
-95 0 -179 -3 -187 -6z"/>
<path d="M610 635 c13 -14 26 -25 28 -25 3 0 -5 11 -18 25 -13 14 -26 25 -28
25 -3 0 5 -11 18 -25z"/>
</g>
</svg>
